<svg xmlns="http://www.w3.org/2000/svg" viewBox="0 19.3 20.45 24.2" data-asc=".859" width="20.45" height="24.2"><path d="M8.1 43.5q-3.85 0-5.97-1.77Q0 39.95 0 37.1q0-1.9.88-3.42.87-1.53 2.5-2.63Q5 29.95 7.3 29.33q2.3-.63 5.2-.63.6 0 1.28.03.67.02 1.45.07l1.57.1.15 3.55q-.7-.1-1.47-.15-.78-.05-1.53-.05h-1.4q-1.95 0-3.37.28-1.43.27-2.35.82-.93.55-1.38 1.35-.45.8-.45 1.85 0 .85.3 1.48.3.62.83.97.52.35 1.25.53.72.17 1.57.17 1.65 0 2.9-.55t2.13-1.62q.87-1.08 1.32-2.7.45-1.63.45-3.83 0-3.05-.68-4.75-.67-1.7-1.97-2.35-1.3-.65-3.25-.65-1.6 0-3.07.53-1.48.52-2.88 1.92l-2.65-3q1.9-1.8 4.18-2.6 2.27-.8 4.67-.8 2.2 0 4.08.53 1.87.52 3.3 1.72 1.42 1.2 2.2 3.25.77 2.05.77 5.2v12.95h-5.2V40.1q-.65 1-1.45 1.68-.8.67-1.72 1.05-.93.37-1.93.52-1 .15-2.05.15z" fill="#fff"/></svg>